PathFileType	3	(X/Y/Z)	running_2__view2_aligned.trc
DataRate	CameraRate	NumFrames	NumMarkers	Units	OrigDataRate	OrigDataStartFrame	OrigNumFrames
100.0	100.0	18	19	mm	100.0	3415	6434
Frame#	Time	pelvis			neck			head			hip_left			hip_right			knee_left			knee_right			ankle_left			ankle_right			heel_left			heel_right			toe_left			toe_right			shoulder_left			shoulder_right			elbow_left			elbow_right			wrist_left			wrist_right			
		X1	Y1	Z1	X2	Y2	Z2	X3	Y3	Z3	X4	Y4	Z4	X5	Y5	Z5	X6	Y6	Z6	X7	Y7	Z7	X8	Y8	Z8	X9	Y9	Z9	X10	Y10	Z10	X11	Y11	Z11	X12	Y12	Z12	X13	Y13	Z13	X14	Y14	Z14	X15	Y15	Z15	X16	Y16	Z16	X17	Y17	Z17	X18	Y18	Z18	X19	Y19	Z19	
3415	34.14000	19.034927	950.750281	209.445198	-4.419999	1498.551536	337.755153	-18.301402	1578.999773	486.281350	92.768863	950.614307	212.749946	-54.699316	950.886285	206.140428	125.227382	527.119160	257.114610	-72.483477	538.937089	311.117840	118.388157	235.144325	-8.101609	-79.931218	138.275373	205.080852	111.001731	221.663649	-59.581102	-80.834831	90.496492	165.837410	117.665303	75.421806	71.196344	-86.396360	74.522043	390.146305	161.880805	1463.151049	302.800284	-164.462761	1457.470139	278.858011	254.426459	1236.268648	186.756611	-237.817872	1227.130846	146.945957	183.071204	1113.779581	340.883615	-182.535261	1091.472691	313.223305
3416	34.15000	18.089953	952.060772	210.266955	-4.779151	1500.026667	338.077288	-17.714986	1580.758454	486.501906	91.781508	951.883292	213.486368	-55.601887	952.238279	207.047523	123.978743	529.312242	262.164510	-73.525410	539.215312	304.341817	117.536732	236.222003	1.688525	-80.518057	137.781857	197.116917	110.274422	222.354143	-49.286080	-81.366596	90.033619	157.713032	116.375013	78.334560	81.658187	-86.557096	73.373080	381.961093	160.411092	1465.110835	300.582059	-165.105164	1458.467521	281.078656	252.670927	1241.041553	179.625621	-238.725752	1226.861571	151.782657	187.951469	1116.311580	333.560974	-179.314540	1096.648279	318.818537
3417	34.16000	17.144978	953.371262	211.088712	-5.138304	1501.501798	338.399424	-17.128570	1582.517135	486.722462	90.794153	953.152276	214.222790	-56.504458	953.590274	207.954618	122.730104	531.505324	267.214409	-74.567342	539.493535	297.565793	116.685306	237.299681	11.478658	-81.104897	137.288342	189.152982	109.547112	223.044636	-38.991058	-81.898361	89.570747	149.588654	115.084722	81.247313	92.120030	-86.717831	72.224118	373.775880	158.941379	1467.070620	298.363835	-165.747568	1459.464904	283.299302	250.915395	1245.814458	172.494631	-239.633632	1226.592295	156.619356	192.831733	1118.843580	326.238333	-176.093820	1101.823867	324.413769
3418	34.17000	16.200003	954.681753	211.910469	-5.497456	1502.976928	338.721559	-16.542154	1584.275816	486.943018	89.806798	954.421261	214.959211	-57.407030	954.942269	208.861713	121.481465	533.698406	272.264309	-75.609274	539.771758	290.789770	115.833881	238.377358	21.268791	-81.691737	136.794827	181.189046	108.819803	223.735130	-28.696035	-82.430126	89.107874	141.464277	113.794432	84.160067	102.581873	-86.878567	71.075156	365.590668	157.471666	1469.030405	296.145611	-166.389971	1460.462287	285.519947	249.159864	1250.587364	165.363641	-240.541512	1226.323020	161.456055	197.711998	1121.375579	318.915692	-172.873099	1106.999456	330.009001
3419	34.18000	16.722771	953.462929	213.142546	-4.214408	1501.847364	338.792303	-14.202332	1583.638489	487.123475	90.273251	953.202873	216.072481	-56.827970	953.723011	210.212594	121.035348	533.819207	280.483562	-76.298719	537.275983	285.439760	115.285315	235.812203	35.194166	-82.195315	140.810168	167.159962	108.458555	220.248218	-14.190188	-82.667736	94.957016	126.935741	112.827371	85.093550	119.093636	-87.595212	71.224400	345.754984	157.913939	1468.206154	292.971334	-165.822548	1458.464166	287.976657	249.863028	1251.666130	157.660638	-239.774491	1221.632580	168.253565	206.813211	1119.281206	312.476820	-165.057035	1107.875017	338.198961
3420	34.19000	17.245539	952.244105	214.374622	-2.931359	1500.717799	338.863047	-11.862509	1583.001162	487.303931	90.739705	951.984485	217.185750	-56.248911	952.503753	211.563474	120.589231	533.940008	288.702814	-76.988163	534.780207	280.089751	114.736748	233.247048	49.119541	-82.698894	144.825510	153.130877	108.097308	216.761305	0.315660	-82.905347	100.806158	112.407205	111.860310	86.027034	135.605399	-88.311857	71.373645	325.919300	158.356211	1467.381902	289.797058	-165.255126	1456.466045	290.433368	250.566193	1252.744896	149.957636	-239.007470	1216.942140	175.051075	215.914424	1117.186834	306.037948	-157.240970	1108.750579	346.388921
3421	34.20000	17.768307	951.025280	215.606698	-1.648311	1499.588235	338.933791	-9.522687	1582.363835	487.484388	91.206158	950.766096	218.299019	-55.669851	951.284494	212.914355	120.143115	534.060809	296.922066	-77.677608	532.284432	274.739741	114.188182	230.681892	63.044916	-83.202472	148.840852	139.101792	107.736060	213.274393	14.821507	-83.142957	106.655300	97.878669	110.893249	86.960517	152.117162	-89.028502	71.522890	306.083616	158.798484	1466.557651	286.622781	-164.687703	1454.467924	292.890078	251.269357	1253.823662	142.254633	-238.240450	1212.251700	181.848585	225.015638	1115.092461	299.599077	-149.424906	1109.626140	354.578882
3422	34.21000	18.291075	949.806456	216.838775	-0.365262	1498.458671	339.004535	-7.182865	1581.726508	487.664845	91.672611	949.547708	219.412289	-55.090792	950.065236	214.265236	119.696998	534.181610	305.141319	-78.367053	529.788656	269.389731	113.639616	228.116737	76.970291	-83.706050	152.856193	125.072707	107.374813	209.787480	29.327355	-83.380568	112.504442	83.350132	109.926188	87.894000	168.628925	-89.745146	71.672134	286.247932	159.240757	1465.733399	283.448504	-164.120280	1452.469803	295.346788	251.972521	1254.902428	134.551630	-237.473429	1207.561260	188.646095	234.116851	1112.998089	293.160205	-141.608841	1110.501702	362.768842
3423	34.22000	18.813843	948.587631	218.070851	0.917786	1497.329106	339.075279	-4.843042	1581.089181	487.845301	92.139064	948.329320	220.525558	-54.511732	948.845978	215.616117	119.250881	534.302411	313.360571	-79.056497	527.292881	264.039722	113.091050	225.551582	90.895665	-84.209629	156.871535	111.043622	107.013565	206.300567	43.833203	-83.618178	118.353584	68.821596	108.959127	88.827484	185.140688	-90.461791	71.821379	266.412248	159.683029	1464.909148	280.274227	-163.552857	1450.471682	297.803499	252.675686	1255.981194	126.848628	-236.706409	1202.870820	195.443605	243.218064	1110.903717	286.721334	-133.792777	1111.377264	370.958802
3424	34.23000	19.336612	947.368807	219.302928	2.200835	1496.199542	339.146023	-2.503220	1580.451855	488.025758	92.605517	947.110932	221.638827	-53.932673	947.626720	216.966998	118.804765	534.423212	321.579823	-79.745942	524.797105	258.689712	112.542484	222.986427	104.821040	-84.713207	160.886877	97.014537	106.652317	202.813655	58.339050	-83.855789	124.202726	54.293060	107.992066	89.760967	201.652451	-91.178436	71.970624	246.576564	160.125302	1464.084896	277.099951	-162.985435	1448.473562	300.260209	253.378850	1257.059961	119.145625	-235.939388	1198.180380	202.241115	252.319277	1108.809344	280.282462	-125.976712	1112.252825	379.148762
3425	34.24000	19.859380	946.149983	220.535004	3.483883	1495.069977	339.216767	-0.163398	1579.814528	488.206215	93.071971	945.892544	222.752096	-53.353614	946.407461	218.317878	118.358648	534.544013	329.799076	-80.435386	522.301330	253.339702	111.993918	220.421271	118.746415	-85.216785	164.902218	82.985452	106.291070	199.326742	72.844898	-84.093400	130.051867	39.764524	107.025005	90.694450	218.164214	-91.895081	72.119868	226.740880	160.567575	1463.260645	273.925674	-162.418012	1446.475441	302.716919	254.082015	1258.138727	111.442622	-235.172367	1193.489941	209.038625	261.420491	1106.714972	273.843591	-118.160648	1113.128387	387.338723
3426	34.25000	20.382148	944.931158	221.767081	4.766932	1493.940413	339.287511	2.176425	1579.177201	488.386671	93.538424	944.674156	223.865366	-52.774554	945.188203	219.668759	117.912531	534.664814	338.018328	-81.124831	519.805554	247.989692	111.445352	217.856116	132.671790	-85.720364	168.917560	68.956367	105.929822	195.839830	87.350745	-84.331010	135.901009	25.235988	106.057944	91.627934	234.675977	-92.611726	72.269113	206.905196	161.009847	1462.436393	270.751397	-161.850589	1444.477320	305.173630	254.785179	1259.217493	103.739619	-234.405347	1188.799501	215.836135	270.521704	1104.620599	267.404719	-110.344583	1114.003949	395.528683
3427	34.26000	20.904916	943.712334	222.999157	6.049980	1492.810849	339.358255	4.516247	1578.539874	488.567128	94.004877	943.455768	224.978635	-52.195495	943.968945	221.019640	117.466414	534.785614	346.237581	-81.814275	517.309779	242.639683	110.896785	215.290961	146.597165	-86.223942	172.932902	54.927282	105.568574	192.352917	101.856593	-84.568621	141.750151	10.707452	105.090883	92.561417	251.187740	-93.328370	72.418358	187.069512	161.452120	1461.612141	267.577120	-161.283167	1442.479199	307.630340	255.488344	1260.296259	96.036617	-233.638326	1184.109061	222.633645	279.622917	1102.526227	260.965848	-102.528519	1114.879510	403.718643
3428	34.27000	21.427684	942.493509	224.231234	7.333029	1491.681284	339.428999	6.856070	1577.902547	488.747585	94.471330	942.237380	226.091904	-51.616435	942.749687	222.370521	117.020298	534.906415	354.456833	-82.503720	514.814003	237.289673	110.348219	212.725806	160.522539	-86.727520	176.948243	40.898197	105.207327	188.866005	116.362440	-84.806231	147.599293	-3.821084	104.123822	93.494900	267.699503	-94.045015	72.567602	167.233828	161.894393	1460.787890	264.402844	-160.715744	1440.481078	310.087050	256.191508	1261.375025	88.333614	-232.871306	1179.418621	229.431155	288.724130	1100.431854	254.526976	-94.712454	1115.755072	411.908603
3429	34.28000	21.608496	941.107911	224.515633	8.202847	1490.329022	339.059336	8.170839	1576.349057	488.363514	94.661331	940.879575	226.040194	-51.444765	941.336289	222.991035	116.399819	533.734228	358.609023	-82.688023	513.571740	237.142066	108.917138	207.696438	170.741197	-88.296848	181.191211	29.990234	103.809527	182.524588	127.106703	-86.362160	153.590525	-15.711815	102.899925	92.371258	282.061719	-95.852584	71.761217	151.711004	162.616739	1459.540210	262.908661	-160.336603	1438.479955	310.916042	256.899026	1260.408524	85.911348	-231.741421	1175.812804	232.160793	292.279419	1097.656103	252.981974	-91.604990	1114.821294	415.317925
3430	34.29000	21.789308	939.722312	224.800033	9.072666	1488.976760	338.689674	9.485609	1574.795568	487.979443	94.851333	939.521771	225.988483	-51.273095	939.922891	223.611549	115.779341	532.562040	362.761213	-82.872326	512.329476	236.994460	107.486057	202.667071	180.959854	-89.866175	185.434179	19.082271	102.411727	176.183172	137.850966	-87.918088	159.581756	-27.602546	101.676029	91.247615	296.423936	-97.660153	70.954832	136.188179	163.339086	1458.292530	261.414478	-159.957462	1436.478833	311.745034	257.606543	1259.442024	83.489082	-230.611536	1172.206987	234.890431	295.834708	1094.880353	251.436972	-88.497526	1113.887516	418.727246
3431	34.30000	21.970120	938.336714	225.084433	9.942485	1487.624497	338.320012	10.800379	1573.242078	487.595371	95.041334	938.163967	225.936773	-51.101425	938.509493	224.232063	115.158863	531.389852	366.913403	-83.056630	511.087213	236.846853	106.054976	197.637704	191.178512	-91.435503	189.677146	8.174307	101.013927	169.841755	148.595228	-89.474016	165.572987	-39.493278	100.452132	90.123973	310.786152	-99.467722	70.148447	120.665354	164.061432	1457.044850	259.920295	-159.578321	1434.477710	312.574025	258.314061	1258.475523	81.066816	-229.481652	1168.601171	237.620068	299.389997	1092.104602	249.891970	-85.390062	1112.953738	422.136568
3432	34.31000	22.150932	936.951115	225.368833	10.812304	1486.272235	337.950350	12.115149	1571.688588	487.211300	95.231335	936.806163	225.885062	-50.929755	937.096095	224.852577	114.538385	530.217664	371.065593	-83.240933	509.844949	236.699247	104.623894	192.608337	201.397170	-93.004830	193.920114	-2.733656	99.616127	163.500339	159.339491	-91.029945	171.564218	-51.384009	99.228235	89.000330	325.148369	-101.275290	69.342062	105.142529	164.783779	1455.797170	258.426112	-159.199180	1432.476587	313.403017	259.021579	1257.509022	78.644550	-228.351767	1164.995354	240.349706	302.945286	1089.328851	248.346968	-82.282598	1112.019960	425.545890
